<svg width="250" height="250" xmlns="http://www.w3.org/2000/svg">
<style type="text/css">.st0{fill:#fff;opacity:.5;}
	.st1{fill:#fff;opacity:.75;}
  .st3{fill:#2196f3;}
</style>

 <g>
  <title>background</title>
  <rect fill="none" id="canvas_background" height="402" width="582" y="-1" x="-1"/>
 </g>
 <g>
  <title>Layer 1</title>
  <g id="svg_1">
   <polygon id="svg_2" points="124.99999237060547,25 124.99999237060547,25 124.99999237060547,25 31.899993896484375,58.20000076293945 46.09999465942383,181.3000030517578 124.99999237060547,225 124.99999237060547,225 124.99999237060547,225 203.89999389648438,181.3000030517578 218.10000610351562,58.20000076293945 " class="st0"/>
   <polygon id="svg_3" points="124.99999237060547,25 124.99999237060547,47.20000076293945 124.99999237060547,47.099998474121094 124.99999237060547,148.39999389648438 124.99999237060547,148.39999389648438 124.99999237060547,225 124.99999237060547,225 203.89999389648438,181.3000030517578 218.10000610351562,58.20000076293945 124.99999237060547,25 " class="st1"/>
  </g>
  <path id="svg_5" d="m-277.885792,42.289688l0,-0.838125l0,0c0,-0.360021 0.291854,-0.651875 0.651875,-0.651875l0,0l0,0c0.172888,0 0.338695,0.068679 0.460945,0.19093c0.12225,0.12225 0.19093,0.288057 0.19093,0.460945l0,0.093125l0.18625,0l-0.3725,0.3725l-0.3725,-0.3725l0.18625,0l0,-0.093125c0,-0.154294 -0.12508,-0.279375 -0.279375,-0.279375l0,0l0,0c-0.154295,0 -0.279375,0.12508 -0.279375,0.279375l0,0.838125l-0.3725,0z" stroke-width="1.5" stroke="#000" fill="#fff"/>
  <path stroke="#000" transform="rotate(45 133.49673461914057,116.50327301025392) " id="svg_6" d="m85.431995,116.346601l48.064732,-65.119605l48.064732,65.119605l-24.032368,0l0,65.432949l-48.064729,0l0,-65.432949l-24.032368,0z" stroke-width="0" class="st3" />
 </g>
</svg>
